<svg width="79" height="74" viewBox="0 0 79 74" fill="none" xmlns="http://www.w3.org/2000/svg">
<path d="M11.3722 32.3101L4 46.0155L16.5634 50.6866C20.31 52.0798 23.2786 54.8394 24.7772 58.3219L29.8026 70L44.5469 63.1473L40.0853 54.8528C38.4225 51.7615 39.4962 48.0035 42.5896 46.0864L48.233 42.5891L62.9773 66.5736L74.0356 52.8682L65.5967 27.2768L68.2289 24.8299C73.4329 19.9931 78.2193 12.214 72.1925 6.61236C66.1658 1.01074 57.7811 5.44538 52.5977 10.3012L49.9448 12.7291L22.4304 4.89922L7.68608 15.1783L33.4887 28.8837L29.7265 34.1295C27.6641 37.0049 23.621 38.0029 20.2955 36.4573L11.3722 32.3101Z" stroke="#FFB258" stroke-width="7" stroke-linecap="round" stroke-linejoin="round"/>
</svg>