<svg width="209" height="213" viewBox="0 0 209 213" fill="none" xmlns="http://www.w3.org/2000/svg">
<path d="M29.6245 92.7855L10 132.863L43.4434 146.523C53.4167 150.597 61.319 158.667 65.3084 168.851L78.6857 203L117.935 182.961L106.058 158.706C101.632 149.666 104.49 138.677 112.724 133.071L127.747 122.844L166.996 192.981L196.433 152.902L173.969 78.0669L180.975 70.9118C194.828 56.7677 207.57 34.0197 191.527 17.6392C175.484 1.25869 153.164 14.2266 139.366 28.4262L132.304 35.5259L59.0612 12.6295L19.8122 42.6879L88.498 82.766L78.4832 98.1058C72.9933 106.514 62.2305 109.433 53.3783 104.913L29.6245 92.7855Z" stroke="white" stroke-width="18.7398" stroke-linecap="round" stroke-linejoin="round"/>
</svg>
