<svg width="39" height="39" viewBox="0 0 39 39" fill="none" xmlns="http://www.w3.org/2000/svg">
<path d="M19.6596 19.389C20.5401 19.389 21.2941 19.0752 21.9217 18.4477C22.5482 17.8212 22.8614 17.0677 22.8614 16.1872C22.8614 15.3067 22.5482 14.5527 21.9217 13.9252C21.2941 13.2987 20.5401 12.9855 19.6596 12.9855C18.7791 12.9855 18.0256 13.2987 17.3992 13.9252C16.7716 14.5527 16.4578 15.3067 16.4578 16.1872C16.4578 17.0677 16.7716 17.8212 17.3992 18.4477C18.0256 19.0752 18.7791 19.389 19.6596 19.389ZM19.6596 31.1555C22.9148 28.1672 25.3294 25.4521 26.9036 23.0102C28.4778 20.5694 29.2649 18.4018 29.2649 16.5074C29.2649 13.5991 28.3375 11.2175 26.4826 9.36265C24.6288 7.50882 22.3544 6.5819 19.6596 6.5819C16.9648 6.5819 14.6899 7.50882 12.835 9.36265C10.9812 11.2175 10.0543 13.5991 10.0543 16.5074C10.0543 18.4018 10.8414 20.5694 12.4156 23.0102C13.9898 25.4521 16.4045 28.1672 19.6596 31.1555ZM19.6596 34.7976C19.4462 34.7976 19.2327 34.7575 19.0193 34.6775C18.8058 34.5975 18.619 34.4907 18.4589 34.3573C14.5635 30.9154 11.6552 27.7206 9.73411 24.7728C7.81304 21.824 6.85251 19.0688 6.85251 16.5074C6.85251 12.5052 8.14016 9.31675 10.7155 6.9421C13.2897 4.56745 16.2711 3.38013 19.6596 3.38013C23.0482 3.38013 26.0296 4.56745 28.6038 6.9421C31.1791 9.31675 32.4667 12.5052 32.4667 16.5074C32.4667 19.0688 31.5062 21.824 29.5851 24.7728C27.6641 27.7206 24.7558 30.9154 20.8603 34.3573C20.7002 34.4907 20.5134 34.5975 20.3 34.6775C20.0865 34.7575 19.8731 34.7976 19.6596 34.7976Z" fill="#A3A3A3"/>
</svg>
